ply
format ascii 1.0
comment File exported by Rhinoceros Version 6.0
element vertex 72
property float x
property float y
property float z
element face 24
property list uchar uint vertex_index
end_header
-26.92657 11.2807 -0.5097871
-26.92657 11.2807 6.383699
33.36622 -11.59288 -0.5097871
33.36622 -11.59288 6.383699
33.36622 -11.59288 -0.5097871
33.36622 -11.59288 6.383699
33.61687 -10.9322 -0.5097871
33.61687 -10.9322 6.383699
33.61687 -10.9322 -0.5097871
33.61687 -10.9322 6.383699
-26.67593 11.94138 -0.5097871
-26.67593 11.94138 6.383699
-26.67593 11.94138 -0.5097871
-26.67593 11.94138 6.383699
-26.92657 11.2807 -0.5097871
-26.92657 11.2807 6.383699
-26.92657 11.2807 -0.5097871
33.36622 -11.59288 -0.5097871
33.61687 -10.9322 -0.5097871
-26.67593 11.94138 -0.5097871
-26.92657 11.2807 6.383699
33.36622 -11.59288 6.383699
33.61687 -10.9322 6.383699
-26.67593 11.94138 6.383699
-26.92657 11.2807 -19.00208
-26.92657 11.2807 -12.10859
33.36622 -11.59288 -19.00208
33.36622 -11.59288 -12.10859
33.36622 -11.59288 -19.00208
33.36622 -11.59288 -12.10859
33.61687 -10.9322 -19.00208
33.61687 -10.9322 -12.10859
33.61687 -10.9322 -19.00208
33.61687 -10.9322 -12.10859
-26.67593 11.94138 -19.00208
-26.67593 11.94138 -12.10859
-26.67593 11.94138 -19.00208
-26.67593 11.94138 -12.10859
-26.92657 11.2807 -19.00208
-26.92657 11.2807 -12.10859
-26.92657 11.2807 -19.00208
33.36622 -11.59288 -19.00208
33.61687 -10.9322 -19.00208
-26.67593 11.94138 -19.00208
-26.92657 11.2807 -12.10859
33.36622 -11.59288 -12.10859
33.61687 -10.9322 -12.10859
-26.67593 11.94138 -12.10859
-26.70733 -11.51243 -11.40433
-26.70733 -11.51243 -4.510842
33.6465 11.19959 -11.40433
33.6465 11.19959 -4.510842
33.6465 11.19959 -11.40433
33.6465 11.19959 -4.510842
33.39763 11.86093 -11.40433
33.39763 11.86093 -4.510842
33.39763 11.86093 -11.40433
33.39763 11.86093 -4.510842
-26.95621 -10.85109 -11.40433
-26.95621 -10.85109 -4.510842
-26.95621 -10.85109 -11.40433
-26.95621 -10.85109 -4.510842
-26.70733 -11.51243 -11.40433
-26.70733 -11.51243 -4.510842
-26.70733 -11.51243 -11.40433
33.6465 11.19959 -11.40433
33.39763 11.86093 -11.40433
-26.95621 -10.85109 -11.40433
-26.70733 -11.51243 -4.510842
33.6465 11.19959 -4.510842
33.39763 11.86093 -4.510842
-26.95621 -10.85109 -4.510842
4 0 2 3 1
4 4 6 7 5
4 8 10 11 9
4 12 14 15 13
3 17 16 19
3 19 18 17
3 21 23 20
3 23 21 22
4 24 26 27 25
4 28 30 31 29
4 32 34 35 33
4 36 38 39 37
3 41 40 43
3 43 42 41
3 45 47 44
3 47 45 46
4 48 50 51 49
4 52 54 55 53
4 56 58 59 57
4 60 62 63 61
3 65 64 67
3 67 66 65
3 69 71 68
3 71 69 70
